<?xml version="1.0" standalone="no"?>
<!DOCTYPE svg PUBLIC "-//W3C//DTD SVG 20010904//EN"
 "http://www.w3.org/TR/2001/REC-SVG-20010904/DTD/svg10.dtd">
<svg version="1.0" xmlns="http://www.w3.org/2000/svg"
 width="600.000000pt" height="600.000000pt" viewBox="0 0 600.000000 600.000000"
 preserveAspectRatio="xMidYMid meet">
<metadata>
Created by potrace 1.16, written by Peter Selinger 2001-2019
</metadata>
<g transform="translate(0.000000,600.000000) scale(0.100000,-0.100000)"
fill="#000000" stroke="none">
<path d="M2610 5984 c-541 -72 -1059 -292 -1490 -634 -135 -106 -364 -335
-470 -470 -346 -436 -565 -955 -635 -1503 -20 -161 -20 -589 0 -756 69 -553
295 -1083 649 -1521 113 -138 345 -368 476 -469 426 -331 908 -536 1433 -612
134 -19 180 -20 480 -16 361 5 429 12 690 78 1067 268 1908 1109 2176 2176 66
261 73 329 78 690 4 300 3 346 -16 480 -76 525 -281 1007 -612 1433 -101 131
-331 363 -469 476 -438 354 -968 580 -1521 649 -159 19 -618 19 -769 -1z m460
-1574 c25 -6 74 -15 110 -20 97 -13 181 -31 217 -46 17 -8 40 -14 52 -14 11 0
24 -6 28 -13 4 -8 16 -16 25 -20 9 -3 22 -15 28 -26 9 -17 8 -21 -4 -21 -10 0
-13 6 -9 17 5 12 2 15 -10 10 -10 -4 -17 -2 -17 5 0 9 -3 9 -11 1 -8 -8 -8
-17 0 -32 13 -24 19 -25 56 -11 17 7 24 7 20 0 -3 -6 -13 -10 -21 -10 -8 0
-14 -4 -14 -10 0 -5 7 -10 15 -10 14 0 20 -12 16 -33 -1 -5 2 -6 6 -4 14 9 39
-17 40 -40 1 -13 -2 -23 -6 -23 -12 0 -20 -49 -9 -52 12 -4 19 -48 7 -48 -5 0
-9 -7 -9 -15 0 -8 5 -15 10 -15 6 0 10 -6 10 -14 0 -7 7 -19 15 -26 12 -10 13
-16 3 -27 -6 -8 -7 -13 -2 -12 25 4 36 -4 14 -11 -24 -8 -24 -8 -2 -9 12 -1
23 -5 23 -11 1 -10 4 -23 9 -37 1 -5 1 -25 0 -47 -1 -25 2 -36 9 -32 7 4 8 1
5 -8 -3 -9 -12 -16 -20 -16 -8 0 -14 -10 -14 -22 0 -13 -7 -31 -14 -41 -8 -10
-12 -27 -9 -37 5 -17 1 -18 -33 -13 -25 4 -35 3 -30 -5 4 -7 -3 -8 -25 -2 -27
8 -29 7 -18 -6 11 -14 10 -16 -11 -13 -14 2 -30 0 -36 -4 -7 -4 -17 0 -24 8
-18 22 -32 18 -20 -6 11 -19 10 -20 -9 -9 -17 9 -21 8 -21 -4 0 -10 -6 -13
-15 -10 -20 8 -45 -13 -45 -37 0 -10 -9 -24 -20 -31 -11 -7 -20 -18 -20 -25 0
-7 -5 -13 -11 -13 -6 0 -9 7 -5 15 14 37 -30 1 -54 -45 -6 -12 -17 -20 -23
-17 -8 3 -12 -7 -11 -30 1 -21 -3 -36 -12 -40 -18 -7 -18 -23 0 -23 27 0 39
-31 42 -103 2 -82 13 -222 19 -252 2 -11 5 -23 5 -27 5 -42 67 -175 85 -182
21 -8 19 -40 -5 -61 -11 -10 -20 -24 -20 -32 0 -12 -12 -17 -33 -14 -4 0 -6
-4 -5 -10 2 -6 -8 -13 -22 -15 -13 -3 -27 -9 -31 -15 -4 -7 -12 -5 -22 5 -8 9
-23 16 -31 16 -9 0 -30 14 -48 30 -32 31 -90 42 -104 19 -3 -6 -15 -9 -25 -6
-12 3 -19 0 -19 -9 0 -8 -6 -11 -17 -7 -11 4 -14 3 -9 -5 4 -7 2 -20 -3 -29
-10 -17 -10 -17 -11 0 0 10 -5 15 -10 12 -6 -4 -8 -11 -5 -16 7 -10 -1 -11
-33 -3 -20 6 -22 12 -20 53 3 40 1 46 -17 46 -16 0 -20 -7 -21 -35 0 -19 -2
-37 -3 -40 -8 -15 -6 -48 2 -43 5 3 6 -3 2 -16 -5 -16 -1 -23 19 -31 16 -6 24
-15 20 -24 -7 -18 36 -47 79 -53 18 -2 58 -5 90 -6 l57 -2 0 -36 c0 -21 5 -39
11 -41 9 -3 9 -14 -1 -42 -7 -21 -15 -34 -19 -28 -4 7 -12 8 -21 2 -13 -8 -13
-11 -1 -22 12 -11 13 -10 6 2 -6 12 -5 13 5 3 11 -10 11 -15 0 -27 -7 -9 -16
-14 -20 -11 -8 5 -20 -17 -20 -35 0 -5 7 -16 16 -25 15 -15 18 -15 37 2 11 10
18 13 14 7 -3 -6 1 -11 9 -11 9 0 13 6 9 15 -4 10 0 13 13 10 11 -3 19 0 19 7
0 7 -8 10 -21 7 -17 -4 -19 -3 -9 9 11 14 13 19 13 38 0 4 12 8 28 7 15 -1 33
6 40 14 11 13 11 11 2 -8 -10 -20 -8 -26 12 -44 13 -11 22 -26 20 -34 -2 -9 6
-14 23 -14 47 0 22 -22 -56 -50 l-76 -27 -59 20 c-64 20 -183 28 -185 12 0 -5
-3 -4 -6 4 -4 10 -7 11 -13 1 -5 -8 -15 -10 -26 -5 -30 13 -44 14 -44 4 0 -6
-5 -7 -10 -4 -6 4 -4 12 5 21 8 9 13 19 10 24 -8 12 23 33 40 26 8 -3 15 -1
15 4 0 6 -10 11 -22 11 -18 1 -19 2 -5 6 9 2 15 9 12 14 -8 12 -2 11 29 -4 14
-8 23 -17 20 -20 -3 -3 -1 -13 4 -23 9 -16 11 -15 22 5 6 13 9 33 6 46 -4 16
-1 27 10 33 14 8 11 9 -12 9 -16 0 -23 -2 -16 -4 9 -4 6 -11 -9 -24 -12 -11
-25 -17 -28 -14 -3 4 1 10 8 14 7 5 10 14 7 20 -11 17 -26 13 -19 -5 4 -12 0
-14 -21 -8 -21 5 -26 3 -27 -12 0 -15 -2 -15 -6 -4 -7 18 -23 30 -42 30 -7 0
-11 -6 -8 -14 4 -10 0 -12 -16 -7 -48 17 -87 36 -87 44 0 4 -4 5 -10 2 -5 -3
-10 -1 -10 4 0 6 -7 11 -16 11 -8 0 -12 -5 -9 -10 3 -6 -1 -10 -9 -10 -9 0
-16 -4 -16 -10 0 -5 -9 -10 -21 -10 -12 0 -17 4 -13 11 5 8 1 8 -14 0 -15 -8
-23 -8 -28 0 -7 12 68 91 99 102 9 3 17 13 17 20 0 8 7 20 15 27 8 7 15 21 15
31 0 11 5 19 12 19 6 0 4 8 -6 19 -23 25 -65 23 -58 -2 3 -12 0 -18 -9 -16
-22 3 -50 -12 -42 -24 4 -6 -3 -8 -21 -3 -17 4 -25 3 -22 -3 4 -6 -9 -13 -29
-17 -19 -3 -35 -10 -35 -15 0 -12 -52 0 -65 15 -6 7 -26 11 -47 8 -21 -2 -38
1 -38 7 0 5 -7 17 -16 26 -14 13 -19 14 -25 3 -7 -10 -9 -10 -9 0 0 6 -7 12
-15 12 -8 0 -15 8 -15 19 0 14 -6 17 -24 14 -24 -5 -69 24 -60 38 2 4 -8 17
-23 29 -16 12 -28 25 -28 28 0 4 -5 6 -11 6 -6 -1 -11 4 -10 10 0 6 -3 12 -9
14 -14 5 -25 37 -20 62 4 19 2 20 -13 9 -9 -7 -14 -10 -10 -5 4 5 1 15 -7 22
-7 8 -11 22 -8 33 3 10 0 22 -6 25 -6 4 -11 17 -11 28 0 12 -8 30 -17 40 -13
15 -14 21 -5 27 13 8 13 46 1 66 -4 6 -5 18 -4 28 2 9 0 17 -5 17 -4 0 -10 14
-12 30 -3 17 0 30 5 30 5 0 3 8 -4 17 -12 15 -12 16 4 10 9 -3 17 -2 17 3 0 6
-8 10 -19 10 -20 0 -38 43 -20 49 7 2 6 7 -2 12 -11 7 -11 9 2 9 10 0 21 16
29 43 16 48 17 53 19 67 1 14 28 13 37 -2 5 -8 2 -9 -9 -5 -9 3 -19 2 -22 -3
-6 -9 8 -14 28 -11 5 1 6 -3 2 -9 -3 -5 1 -10 9 -10 9 0 16 -5 16 -11 0 -5 -5
-7 -12 -3 -7 4 -8 3 -4 -4 13 -22 26 -12 26 19 0 20 -4 28 -12 23 -7 -4 -8 -3
-4 4 4 7 16 12 27 12 10 0 19 6 19 13 0 6 7 -1 15 -17 9 -16 14 -35 11 -42 -3
-7 22 -40 56 -73 47 -48 69 -62 99 -67 30 -5 41 -12 45 -30 3 -13 10 -24 16
-24 5 0 14 -5 21 -10 51 -43 65 -52 89 -57 16 -3 28 -8 28 -12 0 -7 56 -7 165
2 44 3 72 4 63 1 -9 -3 -20 -14 -23 -24 -3 -10 -15 -22 -27 -25 -14 -5 -17
-10 -9 -18 38 -38 136 6 254 116 17 15 41 27 55 27 28 0 62 26 62 46 0 7 7 17
16 22 22 12 44 82 34 108 -7 17 -4 24 15 34 25 14 41 53 24 59 -8 2 -8 6 1 11
17 10 20 58 4 71 -8 6 -11 15 -8 20 3 5 -2 9 -10 9 -9 0 -16 4 -16 9 0 5 -9
11 -20 14 -11 3 -20 12 -20 21 0 36 -72 84 -132 88 -18 2 -39 9 -46 16 -13 12
-30 14 -104 15 -21 0 -38 5 -38 9 0 5 -8 7 -17 4 -35 -11 -223 -15 -223 -6 0
6 -6 10 -14 10 -27 0 -23 27 10 64 19 21 39 57 45 79 6 23 17 53 25 67 8 14
32 79 54 145 56 166 67 192 118 260 42 56 122 124 154 129 7 1 34 10 60 20 26
10 59 16 73 14 14 -3 25 -1 25 4 0 4 10 6 23 3 12 -2 42 -9 67 -15z m-1372
-1261 c17 -27 32 -53 32 -59 0 -12 -48 -32 -59 -25 -15 8 -50 -40 -48 -65 3
-33 29 -89 44 -94 7 -3 10 1 6 10 -4 12 0 14 20 9 19 -5 35 0 62 21 l36 27 -3
-36 c-2 -29 -6 -37 -21 -37 -15 0 -18 -6 -15 -32 2 -18 7 -31 12 -30 14 6 26
-20 25 -53 l-1 -30 -12 34 c-10 29 -13 31 -25 17 -11 -13 -11 -20 3 -41 9 -13
16 -36 16 -51 0 -15 8 -41 19 -58 10 -17 21 -40 25 -51 5 -18 1 -21 -29 -23
-26 -2 -37 2 -41 15 -13 39 -39 83 -50 83 -14 0 -31 44 -33 83 0 15 -9 37 -19
48 -19 20 -52 122 -52 159 0 12 -4 19 -8 16 -5 -3 -14 10 -19 29 -9 29 -8 33
5 28 11 -5 14 -2 9 10 -3 9 -1 31 5 48 10 30 12 31 25 14 13 -18 13 -18 13 1
0 38 21 93 33 88 7 -3 27 -28 45 -55z m1779 -265 c3 -8 9 -11 14 -8 6 3 16 0
24 -6 8 -7 21 -10 30 -7 8 4 17 2 20 -2 6 -11 66 -8 85 4 8 5 17 2 25 -8 7
-10 21 -17 33 -17 11 0 28 -3 36 -6 15 -6 15 -8 -1 -21 -10 -8 -12 -12 -5 -8
7 4 12 0 12 -9 0 -18 -20 -32 -21 -14 0 7 -4 2 -10 -10 -5 -13 -6 -29 -3 -34
12 -19 14 -78 3 -78 -6 0 -8 -9 -4 -20 4 -11 2 -20 -4 -20 -6 0 -10 -3 -10 -7
1 -5 0 -12 -1 -18 -1 -5 -3 -14 -5 -20 -1 -5 -3 -18 -3 -29 -1 -11 -7 -16 -16
-13 -19 8 -48 -26 -40 -47 3 -9 1 -16 -5 -16 -6 0 -11 7 -11 15 0 8 -7 15 -16
15 -14 0 -15 -2 -3 -17 12 -14 12 -16 0 -9 -9 6 -12 4 -9 -5 3 -8 11 -14 18
-14 7 0 15 -6 18 -12 5 -16 -10 -17 -26 -1 -8 8 -15 8 -25 -1 -10 -7 -23 -8
-38 -3 -13 5 -30 7 -38 4 -9 -3 -11 1 -6 17 4 12 2 21 -4 21 -6 0 -11 5 -11
11 0 6 -11 33 -25 60 -30 61 -57 161 -46 169 9 5 16 47 11 63 -1 4 -3 10 -5
15 -1 4 -6 16 -10 26 -6 13 -5 21 3 24 18 6 14 19 -8 25 -23 6 -27 37 -5 37 8
0 15 4 15 9 0 13 60 -18 67 -35z m-835 -773 c4 0 9 -10 13 -20 3 -11 30 -45
59 -75 48 -49 52 -57 40 -73 -16 -21 -18 -37 -4 -28 6 3 10 -3 10 -14 0 -10
-6 -22 -12 -24 -7 -3 -3 -6 10 -6 18 -1 23 -6 20 -21 -2 -12 -7 -20 -13 -18
-5 1 -9 8 -7 15 2 7 -2 13 -8 13 -5 0 -10 -5 -10 -10 0 -7 -7 -7 -21 0 -11 7
-23 9 -27 6 -3 -3 0 -6 7 -6 7 0 11 -6 8 -14 -4 -9 2 -13 16 -12 12 1 31 -8
41 -19 16 -17 18 -17 13 -2 -4 9 -3 17 2 17 5 0 11 -9 14 -19 3 -14 12 -19 31
-17 14 2 26 0 26 -4 0 -4 30 -8 68 -9 63 -3 110 -7 122 -11 3 -1 22 -1 43 0
32 1 60 -6 147 -38 8 -3 18 -4 23 -4 19 5 5 -56 -18 -76 -14 -12 -25 -18 -25
-13 0 5 -7 8 -15 7 -20 -3 -31 -16 -14 -17 8 0 5 -4 -6 -8 -11 -5 -25 -4 -32
1 -9 7 -13 7 -13 1 0 -15 -81 2 -91 18 -7 12 -9 12 -9 0 0 -7 -6 -11 -15 -7
-9 3 -15 0 -15 -10 0 -14 -2 -14 -16 0 -16 16 -34 13 -34 -5 0 -6 5 -7 10 -4
6 3 10 2 10 -3 0 -6 -7 -12 -15 -16 -10 -3 -17 3 -21 20 -4 17 -9 22 -14 14
-5 -7 -13 -9 -21 -5 -9 6 -11 4 -6 -8 6 -16 -18 -31 -34 -21 -6 3 -17 0 -26
-8 -12 -9 -15 -9 -9 0 5 8 -1 12 -19 12 -14 0 -36 9 -48 20 -12 11 -27 18 -35
15 -9 -3 -12 1 -7 15 5 17 2 20 -24 20 -17 0 -31 5 -31 10 0 6 -9 19 -19 29
-20 20 -19 61 2 61 6 0 7 3 4 7 -4 3 -2 12 4 19 6 8 9 21 5 29 -3 8 -1 15 4
15 6 0 10 -10 11 -22 l0 -23 9 23 c13 30 3 51 -29 59 -41 10 -75 35 -59 44 14
9 15 8 -32 32 -19 10 -40 29 -47 42 -6 14 -8 23 -3 20 4 -3 10 2 14 10 3 8 0
14 -7 12 -7 -1 -11 6 -9 18 2 11 5 30 5 42 1 12 3 20 5 18 2 -2 15 0 30 4 22
6 69 7 94 2z"/>
</g>
</svg>
